<svg width="20" height="20" viewBox="0 0 20 20" fill="none" xmlns="http://www.w3.org/2000/svg">
<path d="M11.8769 5.34076C11.6193 5.09342 11.3153 4.89946 10.9825 4.77006C10.6496 4.64065 10.2945 4.57835 9.93743 4.58674C9.58041 4.59513 9.22858 4.67405 8.90217 4.81895C8.57577 4.96385 8.28125 5.17187 8.03556 5.43104M10.9028 17.2222H11.8805C12.3449 17.2222 12.8047 17.1308 13.2337 16.953C13.6628 16.7753 14.0526 16.5149 14.3809 16.1865C14.7093 15.8581 14.9698 15.4683 15.1475 15.0393C15.3252 14.6102 15.4167 14.1504 15.4167 13.686V7.29167C15.4167 5.85508 14.846 4.47733 13.8302 3.46151C12.8143 2.44568 11.4366 1.875 10 1.875C8.56341 1.875 7.18566 2.44568 6.16984 3.46151C5.15402 4.47733 4.58333 5.85508 4.58333 7.29167V13.6111M10.9028 17.2222V16.3194C10.9028 15.8209 10.4986 15.4167 10 15.4167H9.09722C8.59863 15.4167 8.19444 15.8209 8.19444 16.3194V17.2222C8.19444 17.7208 8.59863 18.125 9.09722 18.125H10C10.4986 18.125 10.9028 17.7208 10.9028 17.2222ZM4.58333 13.6111V8.19444H3.68056C3.20169 8.19444 2.74244 8.38467 2.40383 8.72328C2.06523 9.06189 1.875 9.52114 1.875 10V11.8056C1.875 12.2844 2.06523 12.7437 2.40383 13.0823C2.74244 13.4209 3.20169 13.6111 3.68056 13.6111H4.58333ZM15.4167 8.19444H16.3194C16.7983 8.19444 17.2576 8.38467 17.5962 8.72328C17.9348 9.06189 18.125 9.52114 18.125 10V11.8056C18.125 12.2844 17.9348 12.7437 17.5962 13.0823C17.2576 13.4209 16.7983 13.6111 16.3194 13.6111H15.4167V8.19444Z" stroke="#7CE83F" stroke-width="2" stroke-linecap="round" stroke-linejoin="round"/>
</svg>
