<svg width="161" height="62" viewBox="0 0 161 62" fill="none" xmlns="http://www.w3.org/2000/svg">
<path d="M32.3439 41.5001H0V23.6889C0 17.159 2.37975 11.6004 7.13925 7.01297C11.8988 2.42555 17.6929 0.131836 24.5218 0.131836C31.2679 0.131836 37 2.44621 41.7181 7.07496C46.4776 11.6624 48.8573 17.221 48.8573 23.7509V62.0001H35.3238V23.069C35.3238 19.8454 34.2684 17.0764 32.1577 14.762C30.0469 12.4476 27.5223 11.2904 24.5839 11.2904C21.5212 11.2904 18.9139 12.4063 16.7617 14.638C14.6096 16.8697 13.5335 19.5767 13.5335 22.759V39.5243H32.3439V41.5001Z" fill="#7CE83F"/>
<path d="M107.508 12.5921V23.7507H120.359V34.9093H107.508V46.7499C107.508 49.4775 108.998 50.8413 111.978 50.8413H120.359V61.9999H107.508C104.321 61.9999 101.404 60.8841 98.7549 58.6524C95.8992 56.2553 94.4713 53.383 94.4713 50.0354V12.5921H107.508Z" fill="#7CE83F"/>
<path d="M52.6345 23.7507H65.6714V44.8281C65.6714 46.6465 65.9818 48.0104 66.6026 48.9196C67.4717 50.2008 68.9617 50.8413 71.0724 50.8413H78.2116V23.7507H91.2485V61.9999H67.9684C63.8297 61.9999 60.229 60.5948 57.1664 57.7845C54.1451 54.9328 52.6345 51.4406 52.6345 47.3078V23.7507Z" fill="#7CE83F"/>
<path d="M161 42.8633C161 53.4323 152.42 62.0001 141.836 62.0001C131.252 62.0001 122.672 53.4323 122.672 42.8633C122.672 32.2944 131.252 23.7266 141.836 23.7266C152.42 23.7266 161 32.2944 161 42.8633ZM134.124 42.8633C134.124 47.1165 137.577 50.5644 141.836 50.5644C146.095 50.5644 149.548 47.1165 149.548 42.8633C149.548 38.6102 146.095 35.1623 141.836 35.1623C137.577 35.1623 134.124 38.6102 134.124 42.8633Z" fill="#7CE83F"/>
<path d="M20.525 26.4781L19.7094 28.6429H28.8906L28.075 26.4781C27.9344 26.1067 27.5562 25.8571 27.1312 25.8571H21.4687C21.0437 25.8571 20.6656 26.1067 20.525 26.4781ZM17.5375 28.7821L18.6375 25.8658C19.0594 24.7487 20.1937 24 21.4687 24H27.1312C28.4062 24 29.5406 24.7487 29.9625 25.8658L31.0625 28.7821C31.7875 29.0607 32.3 29.7252 32.3 30.5V34.6786V36.0714C32.3 36.585 31.8531 37 31.3 37H30.3C29.7469 37 29.3 36.585 29.3 36.0714V34.6786H19.3V36.0714C19.3 36.585 18.8531 37 18.3 37H17.3C16.7469 37 16.3 36.585 16.3 36.0714V34.6786V30.5C16.3 29.7252 16.8125 29.0607 17.5375 28.7821ZM20.3 31.4286C20.3 31.1823 20.1946 30.9461 20.0071 30.772C19.8196 30.5978 19.5652 30.5 19.3 30.5C19.0348 30.5 18.7804 30.5978 18.5929 30.772C18.4053 30.9461 18.3 31.1823 18.3 31.4286C18.3 31.6748 18.4053 31.911 18.5929 32.0852C18.7804 32.2593 19.0348 32.3571 19.3 32.3571C19.5652 32.3571 19.8196 32.2593 20.0071 32.0852C20.1946 31.911 20.3 31.6748 20.3 31.4286ZM29.3 32.3571C29.5652 32.3571 29.8196 32.2593 30.0071 32.0852C30.1946 31.911 30.3 31.6748 30.3 31.4286C30.3 31.1823 30.1946 30.9461 30.0071 30.772C29.8196 30.5978 29.5652 30.5 29.3 30.5C29.0348 30.5 28.7804 30.5978 28.5929 30.772C28.4053 30.9461 28.3 31.1823 28.3 31.4286C28.3 31.6748 28.4053 31.911 28.5929 32.0852C28.7804 32.2593 29.0348 32.3571 29.3 32.3571Z" fill="#7CE83F"/>
</svg>
